<svg xmlns="http://www.w3.org/2000/svg" viewBox="0 0 533.5 544.3"><path fill="#4285f4" d="M533.5 278.4c0-18.5-1.5-36.3-4.3-53.6H272v101.5h146.9c-6.3 34.1-25.1 62.9-53.6 82.1v68.3h86.6c50.8-46.8 82.6-116 82.6-198.3z"/><path fill="#34a853" d="M272 544.3c72.6 0 133.6-24 178.2-65.1l-86.6-68.3c-24.1 16.2-55 25.7-91.6 25.7-70.4 0-130-47.5-151.3-111.4H33.9v69.9c44.3 88.4 136.2 149.2 238.1 149.2z"/><path fill="#fbbc04" d="M120.7 324.6c-10.7-31.9-10.7-66.3 0-98.2V156.5H33.9c-37.9 75.6-37.9 165.6 0 241.2l86.8-73.1z"/><path fill="#ea4335" d="M272 107.7c39.4-.6 77.4 14.2 106.2 40.6l79.5-79.5C403.6 20.5 344.1 0 272 0 169.9 0 78 60.8 33.9 149.2l86.8 69.1C142 155.2 201.6 107.7 272 107.7z"/></svg>
